<svg width="214" height="184" viewBox="0 0 214 184" fill="none" xmlns="http://www.w3.org/2000/svg">
<g clip-path="url(#clip0_54_48)">
<path d="M104.334 135.423C109.428 137.011 112.737 140.925 111.725 144.164C110.713 147.403 105.764 148.741 100.668 147.152C98.6238 146.545 96.7547 145.458 95.2171 143.981L73.7175 136.98L77.2204 126.969L98.0433 134.934C100.149 134.593 102.306 134.76 104.334 135.423Z" fill="#FFB6B6"/>
<path d="M58.2757 61.9697C53.1493 61.363 48.4291 64.825 47.4741 69.894C44.0678 87.9742 36.8331 127.072 37.7859 128.024C39.0262 129.263 85.3323 142.896 85.3323 142.896L90.7071 131.329L60.112 116.457L66.8219 73.2131C67.6737 67.7233 63.797 62.6231 58.2757 61.9697Z" fill="#E6E6E6"/>
<path d="M114.063 154.23C109.092 156.17 104.061 155.18 102.826 152.019C101.591 148.858 104.62 144.724 109.592 142.784C111.568 141.981 113.707 141.664 115.831 141.857L136.996 133.903L140.52 143.907L119.281 150.686C117.85 152.267 116.061 153.482 114.063 154.23Z" fill="#A0616A"/>
<path d="M144.585 68.3697C149.659 67.4202 154.601 70.5574 155.895 75.5508C160.51 93.3614 170.357 131.885 169.471 132.899C168.317 134.218 123.032 150.929 123.032 150.929L116.892 139.749L146.417 122.857L136.814 80.1615C135.595 74.7414 139.12 69.3924 144.585 68.3697Z" fill="#E6E6E6"/>
<path d="M54.6443 64.5668L57.166 48.819L40.1445 41.89L37.6228 65.8267L54.6443 64.5668Z" fill="#FFB6B6"/>
<path d="M154.057 67.0455L151.536 51.2977L168.557 44.3687L171.079 68.3053L154.057 67.0455Z" fill="#A0616A"/>
<path d="M50.3427 53.8814C59.9292 53.8814 67.7006 46.1163 67.7006 36.5377C67.7006 26.959 59.9292 19.194 50.3427 19.194C40.7563 19.194 32.9849 26.959 32.9849 36.5377C32.9849 46.1163 40.7563 53.8814 50.3427 53.8814Z" fill="#FFB6B6"/>
<path d="M48.9575 13.2203C49.4598 13.5132 50.1325 13.07 50.2936 12.5116C50.4546 11.9532 50.267 11.3604 50.081 10.8098L49.1445 8.03816C48.4802 6.07243 47.7753 4.03802 46.3367 2.54185C44.1655 0.283621 40.7149 -0.290863 37.6086 0.125331C33.6196 0.659803 29.6838 2.81805 27.8291 6.387C25.9743 9.95595 26.7639 14.9359 30.1154 17.1626C25.3388 22.6329 23.6738 28.7293 23.9367 35.9842C24.1996 43.239 32.1121 49.9159 37.2721 55.0267C38.4244 54.3287 39.472 51.0578 38.8383 49.8696C38.2047 48.6813 39.1126 47.3047 38.3278 46.2102C37.543 45.1157 36.8864 46.8585 37.6798 45.7702C38.1805 45.0835 36.2265 43.5036 36.9707 43.0926C40.5701 41.1045 41.7673 36.6216 44.028 33.1887C46.7548 29.048 51.4218 26.2438 56.3606 25.7786C59.0813 25.5223 61.9549 25.9865 64.1849 27.5647C66.4149 29.1429 67.8586 31.9631 67.3415 34.6442C68.6808 33.2855 69.3474 31.2943 69.096 29.4039C68.8445 27.5135 67.6805 25.7654 66.0326 24.8033C67.0346 21.4924 66.1762 17.6839 63.8504 15.1218C61.5247 12.5597 52.0903 12.9961 48.6949 13.6704" fill="#2F2E41"/>
<path d="M48.4303 25.8791C43.9332 26.3642 40.6862 30.2565 37.9443 33.851C36.364 35.9228 34.7086 38.2108 34.7483 40.8154C34.7884 43.4488 36.5505 45.7075 37.3926 48.2031C38.7691 52.2823 37.4276 57.1356 34.1509 59.9306C37.3886 60.5445 40.8887 58.1188 41.4477 54.8737C42.0983 51.096 39.2323 47.4499 39.5717 43.6316C39.8708 40.2677 42.5238 37.6788 44.7794 35.1636C47.0349 32.6484 49.1532 29.3108 48.1155 26.0967" fill="#2F2E41"/>
<path d="M56.6108 61.9262L36.9591 56.5558L16.7002 64.818L8.01782 133.394L57.6314 135.047V123.985C57.6314 123.985 66.3138 113.152 64.66 97.4536L63.0062 81.7554L56.6108 61.9262Z" fill="#E6E6E6"/>
<path d="M65.6936 89.8111L26.8296 87.7455L16.2867 117.696C16.2867 117.696 3.26316 135.666 1.19592 148.886C-0.871313 162.105 0.369026 180.695 0.369026 180.695H62.5879L57.6314 123.985C57.6314 123.985 69.203 98.8995 67.8618 94.5619C66.5205 90.2242 65.6936 89.8111 65.6936 89.8111Z" fill="#3F3D56"/>
<path d="M35.9255 56.7623H26.4163V91.8766H35.9255V56.7623Z" fill="#3F3D56"/>
<path d="M65.2803 64.6114H55.771V93.529H65.2803V64.6114Z" fill="#3F3D56"/>
<path d="M151.264 65.2311L170.916 59.8607L191.175 68.1228L199.857 136.699L150.243 138.351V127.29C150.243 127.29 145.168 115.982 150.037 100.965C154.791 86.2996 144.869 85.0603 144.869 85.0603L151.264 65.2311Z" fill="#E6E6E6"/>
<path d="M142.181 93.116L181.045 91.0504L191.588 121.001C191.588 121.001 197.997 141.45 200.064 154.669C202.131 167.889 207.506 184 207.506 184H145.287L143.422 129.47L142.181 93.116Z" fill="#3F3D56"/>
<path d="M181.459 60.0672H171.949V95.1815H181.459V60.0672Z" fill="#3F3D56"/>
<path d="M152.104 67.9163H142.595V96.834H152.104V67.9163Z" fill="#3F3D56"/>
<path d="M157.902 56.2917C169.908 56.2917 179.642 46.5662 179.642 34.5693C179.642 22.5724 169.908 12.8469 157.902 12.8469C145.895 12.8469 136.161 22.5724 136.161 34.5693C136.161 46.5662 145.895 56.2917 157.902 56.2917Z" fill="#A0616A"/>
<path d="M179.286 46.3532C179.286 46.3532 168.768 33.7418 164.56 34.7927C160.353 35.8437 162.983 37.4201 162.983 37.4201L152.465 25.8597C152.465 25.8597 144.05 22.7068 136.161 32.6908C136.161 32.6908 131.428 24.2832 136.161 19.554C140.895 14.8247 142.472 15.3502 143.524 12.7228C144.576 10.0954 151.939 7.99351 151.939 7.99351C151.939 7.99351 151.516 4.21175 153.831 6.10263C156.146 7.99351 161.927 7.99351 161.927 7.99351C161.927 7.99351 161.96 5.89161 164.312 7.99351C166.664 10.0954 169.293 9.04446 169.293 9.04446C169.293 9.04446 169.293 12.6814 171.134 12.7021C172.975 12.7228 176.13 10.0954 176.656 12.1973C177.182 14.2992 180.863 15.3502 181.389 21.6559C181.915 27.9616 179.286 46.3532 179.286 46.3532Z" fill="#2F2E41"/>
<path d="M98.656 78.7749L115.488 110.569L113.181 111.788L96.3487 79.9944C96.1044 79.5329 96.281 78.9601 96.7429 78.7159L97.3764 78.3811C97.8383 78.137 98.4116 78.3134 98.656 78.7749Z" fill="#3F3D56"/>
<path d="M126.698 122.585C122.416 121.481 117.936 123.435 115.787 127.297C113.096 132.133 110.022 136.1 111.051 126.645C112.185 116.236 106.073 107.828 110.876 105.29C115.679 102.751 120.638 110.466 128.445 117.452C135.68 123.926 131.508 123.824 126.698 122.585Z" fill="#3F3D56"/>
<path d="M101.911 85.2069C106.766 82.9922 111.844 83.6997 113.254 86.7867C114.664 89.8738 111.872 94.1706 107.016 96.3854C105.088 97.2967 102.97 97.7335 100.839 97.6592L80.152 106.783L76.0737 96.9923L96.9001 89.0371C98.2404 87.3788 99.9588 86.0654 101.911 85.2069Z" fill="#FFB6B6"/>
<path d="M18.5487 61.2212C14.3258 64.188 13.1232 69.9139 15.7979 74.3256C25.338 90.0613 46.0659 124.001 47.4113 124.075C49.1627 124.171 92.7524 103.443 92.7524 103.443L89.0287 91.2447L56.311 100.573L32.423 63.8949C29.3905 59.2387 23.0967 58.0258 18.5487 61.2212Z" fill="#E6E6E6"/>
<path d="M103.98 134.035L159.896 104.481L166.76 117.446C172.681 128.631 168.401 142.514 157.207 148.43L141.853 156.545C130.66 162.462 116.765 158.185 110.844 147L103.98 134.035Z" fill="#82B536"/>
<path d="M151.354 153.901C146.5 156.116 141.421 155.409 140.011 152.323C138.6 149.236 141.392 144.938 146.248 142.723C148.175 141.811 150.293 141.374 152.425 141.448L173.11 132.321L177.19 142.112L156.365 150.07C155.025 151.728 153.306 153.042 151.354 153.901Z" fill="#A0616A"/>
<path d="M193.425 66.5139C198.551 65.9072 203.271 69.3691 204.226 74.4382C207.632 92.5184 214.867 131.616 213.914 132.568C212.674 133.807 166.368 147.44 166.368 147.44L160.993 135.873L191.588 121.001L184.878 77.7573C184.027 72.2675 187.903 67.1673 193.425 66.5139Z" fill="#E6E6E6"/>
</g>
<defs>
<clipPath id="clip0_54_48">
<rect width="214" height="184" fill="white"/>
</clipPath>
</defs>
</svg>
