<svg width="13" height="11" viewBox="0 0 13 11" fill="none" xmlns="http://www.w3.org/2000/svg">
<path d="M6.75365 0.374884C6.63138 0.145788 6.373 0 6.08925 0C5.8055 0 5.54944 0.145788 5.42486 0.374884L3.94151 3.13029L0.628783 3.57182C0.351953 3.6093 0.121262 3.78425 0.0359059 4.02376C-0.04945 4.26327 0.0197574 4.52777 0.218152 4.7048L2.62196 6.85205L2.05446 9.88654C2.00832 10.1365 2.12367 10.3905 2.35205 10.5384C2.58043 10.6863 2.88264 10.705 3.13179 10.5863L6.09156 9.15968L9.05133 10.5863C9.30048 10.705 9.60269 10.6884 9.83107 10.5384C10.0595 10.3885 10.1748 10.1365 10.1287 9.88654L9.55886 6.85205L11.9627 4.7048C12.1611 4.52777 12.2326 4.26327 12.1449 4.02376C12.0572 3.78425 11.8289 3.6093 11.552 3.57182L8.23699 3.13029L6.75365 0.374884Z" fill="#82B536"/>
</svg>
